{
  "accessors": [
    {
      "bufferView": 2,
      "componentType": 5126,
      "count": 40606,
      "max": [
        453.1883850097656,
        484.956298828125,
        179.51519775390625
      ],
      "min": [
        -453.1883850097656,
        2.145047903060913,
        -178.8262939453125
      ],
      "type": "VEC3"
    },
    {
      "bufferView": 2,
      "byteOffset": 487272,
      "componentType": 5126,
      "count": 40606,
      "max": [
        1.0,
        1.0,
        1.0
      ],
      "min": [
        -1.0,
        -1.0,
        -1.0
      ],
      "type": "VEC3"
    },
    {
      "bufferView": 3,
      "componentType": 5126,
      "count": 40606,
      "max": [
        1.0,
        1.0,
        1.0,
        1.0
      ],
      "min": [
        -1.0,
        -1.0,
        -1.0,
        -1.0
      ],
      "type": "VEC4"
    },
    {
      "bufferView": 1,
      "componentType": 5126,
      "count": 40606,
      "max": [
        0.9905135035514832,
        0.9808555841445923
      ],
      "min": [
        0.001953125,
        0.001953125
      ],
      "type": "VEC2"
    },
    {
      "bufferView": 0,
      "componentType": 5125,
      "count": 199938,
      "type": "SCALAR"
    },
    {
      "bufferView": 2,
      "byteOffset": 974544,
      "componentType": 5126,
      "count": 8508,
      "max": [
        362.658203125,
        456.6532897949219,
        181.41929626464844
      ],
      "min": [
        166.1240997314453,
        392.5315856933594,
        -67.45818328857422
      ],
      "type": "VEC3"
    },
    {
      "bufferView": 2,
      "byteOffset": 1076640,
      "componentType": 5126,
      "count": 8508,
      "max": [
        1.0,
        1.0,
        1.0
      ],
      "min": [
        -1.0,
        -1.0,
        -1.0
      ],
      "type": "VEC3"
    },
    {
      "bufferView": 3,
      "byteOffset": 649696,
      "componentType": 5126,
      "count": 8508,
      "max": [
        1.0,
        1.0,
        1.0,
        1.0
      ],
      "min": [
        -1.0,
        -1.0,
        -1.0,
        1.0
      ],
      "type": "VEC4"
    },
    {
      "bufferView": 1,
      "byteOffset": 324848,
      "componentType": 5126,
      "count": 8508,
      "max": [
        0.9942761063575745,
        0.9826021194458008
      ],
      "min": [
        0.001953125,
        0.15039098262786865
      ],
      "type": "VEC2"
    },
    {
      "bufferView": 0,
      "byteOffset": 799752,
      "componentType": 5125,
      "count": 45144,
      "type": "SCALAR"
    },
    {
      "bufferView": 2,
      "byteOffset": 1178736,
      "componentType": 5126,
      "count": 8508,
      "max": [
        362.658203125,
        384.214111328125,
        181.41929626464844
      ],
      "min": [
        166.1240997314453,
        318.4403991699219,
        -67.45818328857422
      ],
      "type": "VEC3"
    },
    {
      "bufferView": 2,
      "byteOffset": 1280832,
      "componentType": 5126,
      "count": 8508,
      "max": [
        1.0,
        1.0,
        1.0
      ],
      "min": [
        -1.0,
        -1.0,
        -1.0
      ],
      "type": "VEC3"
    },
    {
      "bufferView": 3,
      "byteOffset": 785824,
      "componentType": 5126,
      "count": 8508,
      "max": [
        1.0,
        1.0,
        1.0,
        1.0
      ],
      "min": [
        -1.0,
        -1.0,
        -1.0,
        1.0
      ],
      "type": "VEC4"
    },
    {
      "bufferView": 1,
      "byteOffset": 392912,
      "componentType": 5126,
      "count": 8508,
      "max": [
        0.9891576170921326,
        0.990523099899292
      ],
      "min": [
        0.001953125,
        0.18861258029937744
      ],
      "type": "VEC2"
    },
    {
      "bufferView": 0,
      "byteOffset": 980328,
      "componentType": 5125,
      "count": 45144,
      "type": "SCALAR"
    },
    {
      "bufferView": 2,
      "byteOffset": 1382928,
      "componentType": 5126,
      "count": 8508,
      "max": [
        -166.1240997314453,
        384.214111328125,
        181.41929626464844
      ],
      "min": [
        -362.658203125,
        318.4403991699219,
        -67.45818328857422
      ],
      "type": "VEC3"
    },
    {
      "bufferView": 2,
      "byteOffset": 1485024,
      "componentType": 5126,
      "count": 8508,
      "max": [
        1.0,
        1.0,
        1.0
      ],
      "min": [
        -1.0,
        -1.0,
        -1.0
      ],
      "type": "VEC3"
    },
    {
      "bufferView": 3,
      "byteOffset": 921952,
      "componentType": 5126,
      "count": 8508,
      "max": [
        1.0,
        1.0,
        1.0,
        1.0
      ],
      "min": [
        -1.0,
        -1.0,
        -1.0,
        1.0
      ],
      "type": "VEC4"
    },
    {
      "bufferView": 1,
      "byteOffset": 460976,
      "componentType": 5126,
      "count": 8508,
      "max": [
        0.9942761063575745,
        0.9826022982597351
      ],
      "min": [
        0.20157429575920105,
        0.001953125
      ],
      "type": "VEC2"
    },
    {
      "bufferView": 0,
      "byteOffset": 1160904,
      "componentType": 5125,
      "count": 45144,
      "type": "SCALAR"
    },
    {
      "bufferView": 2,
      "byteOffset": 1587120,
      "componentType": 5126,
      "count": 8508,
      "max": [
        -166.1240997314453,
        456.6532897949219,
        181.41929626464844
      ],
      "min": [
        -362.658203125,
        392.5315856933594,
        -67.45818328857422
      ],
      "type": "VEC3"
    },
    {
      "bufferView": 2,
      "byteOffset": 1689216,
      "componentType": 5126,
      "count": 8508,
      "max": [
        1.0,
        1.0,
        1.0
      ],
      "min": [
        -1.0,
        -1.0,
        -1.0
      ],
      "type": "VEC3"
    },
    {
      "bufferView": 3,
      "byteOffset": 1058080,
      "componentType": 5126,
      "count": 8508,
      "max": [
        1.0,
        1.0,
        1.0,
        1.0
      ],
      "min": [
        -1.0,
        -1.0,
        -1.0,
        1.0
      ],
      "type": "VEC4"
    },
    {
      "bufferView": 1,
      "byteOffset": 529040,
      "componentType": 5126,
      "count": 8508,
      "max": [
        0.9942761063575745,
        0.9826021194458008
      ],
      "min": [
        0.09408596158027649,
        0.001953125
      ],
      "type": "VEC2"
    },
    {
      "bufferView": 0,
      "byteOffset": 1341480,
      "componentType": 5125,
      "count": 45144,
      "type": "SCALAR"
    },
    {
      "bufferView": 2,
      "byteOffset": 1791312,
      "componentType": 5126,
      "count": 8972,
      "max": [
        153.47189331054688,
        456.6532897949219,
        181.41929626464844
      ],
      "min": [
        -153.47189331054688,
        392.5315856933594,
        -67.45818328857422
      ],
      "type": "VEC3"
    },
    {
      "bufferView": 2,
      "byteOffset": 1898976,
      "componentType": 5126,
      "count": 8972,
      "max": [
        1.0,
        1.0,
        1.0
      ],
      "min": [
        -1.0,
        -1.0,
        -1.0
      ],
      "type": "VEC3"
    },
    {
      "bufferView": 3,
      "byteOffset": 1194208,
      "componentType": 5126,
      "count": 8972,
      "max": [
        1.0,
        1.0,
        1.0,
        1.0
      ],
      "min": [
        -1.0,
        -1.0,
        -1.0,
        1.0
      ],
      "type": "VEC4"
    },
    {
      "bufferView": 1,
      "byteOffset": 597104,
      "componentType": 5126,
      "count": 8972,
      "max": [
        0.9967007040977478,
        0.998046875
      ],
      "min": [
        0.001953125,
        0.001953125
      ],
      "type": "VEC2"
    },
    {
      "bufferView": 0,
      "byteOffset": 1522056,
      "componentType": 5125,
      "count": 47724,
      "type": "SCALAR"
    },
    {
      "bufferView": 4,
      "componentType": 5126,
      "count": 36,
      "max": [
        10.0
      ],
      "min": [
        0.0
      ],
      "type": "SCALAR"
    },
    {
      "bufferView": 5,
      "componentType": 5126,
      "count": 36,
      "max": [
        0.0,
        0.0,
        128.04440307617188
      ],
      "min": [
        0.0,
        0.0,
        0.0
      ],
      "type": "VEC3"
    },
    {
      "bufferView": 4,
      "byteOffset": 144,
      "componentType": 5126,
      "count": 46,
      "max": [
        10.0
      ],
      "min": [
        0.0
      ],
      "type": "SCALAR"
    },
    {
      "bufferView": 5,
      "byteOffset": 432,
      "componentType": 5126,
      "count": 46,
      "max": [
        0.0,
        0.0,
        167.30819702148438
      ],
      "min": [
        0.0,
        0.0,
        0.0
      ],
      "type": "VEC3"
    },
    {
      "bufferView": 4,
      "byteOffset": 328,
      "componentType": 5126,
      "count": 50,
      "max": [
        10.0
      ],
      "min": [
        0.0
      ],
      "type": "SCALAR"
    },
    {
      "bufferView": 5,
      "byteOffset": 984,
      "componentType": 5126,
      "count": 50,
      "max": [
        0.0,
        0.0,
        155.58059692382813
      ],
      "min": [
        0.0,
        0.0,
        0.0
      ],
      "type": "VEC3"
    },
    {
      "bufferView": 4,
      "byteOffset": 528,
      "componentType": 5126,
      "count": 43,
      "max": [
        10.0
      ],
      "min": [
        0.0
      ],
      "type": "SCALAR"
    },
    {
      "bufferView": 5,
      "byteOffset": 1584,
      "componentType": 5126,
      "count": 43,
      "max": [
        0.0,
        0.0,
        144.80999755859375
      ],
      "min": [
        0.0,
        0.0,
        0.0
      ],
      "type": "VEC3"
    },
    {
      "bufferView": 4,
      "byteOffset": 700,
      "componentType": 5126,
      "count": 50,
      "max": [
        10.0
      ],
      "min": [
        0.0
      ],
      "type": "SCALAR"
    },
    {
      "bufferView": 5,
      "byteOffset": 2100,
      "componentType": 5126,
      "count": 50,
      "max": [
        0.0,
        0.0,
        141.3636932373047
      ],
      "min": [
        0.0,
        0.0,
        0.0
      ],
      "type": "VEC3"
    }
  ],
  "animations": [
    {
      "channels": [
        {
          "sampler": 0,
          "target": {
            "node": 7,
            "path": "translation"
          }
        },
        {
          "sampler": 1,
          "target": {
            "node": 9,
            "path": "translation"
          }
        },
        {
          "sampler": 2,
          "target": {
            "node": 11,
            "path": "translation"
          }
        },
        {
          "sampler": 3,
          "target": {
            "node": 13,
            "path": "translation"
          }
        },
        {
          "sampler": 4,
          "target": {
            "node": 15,
            "path": "translation"
          }
        }
      ],
      "name": "CINEMA_4D_Main",
      "samplers": [
        {
          "input": 30,
          "interpolation": "LINEAR",
          "output": 31
        },
        {
          "input": 32,
          "interpolation": "LINEAR",
          "output": 33
        },
        {
          "input": 34,
          "interpolation": "LINEAR",
          "output": 35
        },
        {
          "input": 36,
          "interpolation": "LINEAR",
          "output": 37
        },
        {
          "input": 38,
          "interpolation": "LINEAR",
          "output": 39
        }
      ]
    }
  ],
  "asset": {
    "extras": {
      "author": "eucocker (https://sketchfab.com/eucocker)",
      "license": "CC-BY-4.0 (http://creativecommons.org/licenses/by/4.0/)",
      "source": "https://sketchfab.com/3d-models/table-303cfebd25eb4ea3bd06d052106aea41",
      "title": "Table"
    },
    "generator": "Sketchfab-11.40.0",
    "version": "2.0"
  },
  "bufferViews": [
    {
      "buffer": 0,
      "byteLength": 1712952,
      "name": "floatBufferViews",
      "target": 34963
    },
    {
      "buffer": 0,
      "byteLength": 668880,
      "byteOffset": 1712952,
      "byteStride": 8,
      "name": "floatBufferViews",
      "target": 34962
    },
    {
      "buffer": 0,
      "byteLength": 2006640,
      "byteOffset": 2381832,
      "byteStride": 12,
      "name": "floatBufferViews",
      "target": 34962
    },
    {
      "buffer": 0,
      "byteLength": 1337760,
      "byteOffset": 4388472,
      "byteStride": 16,
      "name": "floatBufferViews",
      "target": 34962
    },
    {
      "buffer": 0,
      "byteLength": 900,
      "byteOffset": 5726232,
      "name": "floatBufferViews"
    },
    {
      "buffer": 0,
      "byteLength": 2700,
      "byteOffset": 5727132,
      "byteStride": 12,
      "name": "floatBufferViews"
    }
  ],
  "buffers": [
    {
      "byteLength": 5729832,
      "uri": "scene.bin"
    }
  ],
  "images": [
    {
      "uri": "textures/Scene_-_Root_baseColor.png"
    },
    {
      "uri": "textures/Scene_-_Root_metallicRoughness.png"
    },
    {
      "uri": "textures/Scene_-_Root_normal.png"
    }
  ],
  "materials": [
    {
      "doubleSided": true,
      "name": "Scene_-_Root",
      "normalTexture": {
        "index": 2
      },
      "occlusionTexture": {
        "index": 1
      },
      "pbrMetallicRoughness": {
        "baseColorTexture": {
          "index": 0
        },
        "metallicRoughnessTexture": {
          "index": 1
        }
      }
    }
  ],
  "meshes": [
    {
      "name": "Cube_1__0",
      "primitives": [
        {
          "attributes": {
            "NORMAL": 1,
            "POSITION": 0,
            "TANGENT": 2,
            "TEXCOORD_0": 3
          },
          "indices": 4,
          "material": 0,
          "mode": 4
        }
      ]
    },
    {
      "name": "Cube_4_1__0",
      "primitives": [
        {
          "attributes": {
            "NORMAL": 6,
            "POSITION": 5,
            "TANGENT": 7,
            "TEXCOORD_0": 8
          },
          "indices": 9,
          "material": 0,
          "mode": 4
        }
      ]
    },
    {
      "name": "Cube_4_2__0",
      "primitives": [
        {
          "attributes": {
            "NORMAL": 11,
            "POSITION": 10,
            "TANGENT": 12,
            "TEXCOORD_0": 13
          },
          "indices": 14,
          "material": 0,
          "mode": 4
        }
      ]
    },
    {
      "name": "Cube_4_4__0",
      "primitives": [
        {
          "attributes": {
            "NORMAL": 16,
            "POSITION": 15,
            "TANGENT": 17,
            "TEXCOORD_0": 18
          },
          "indices": 19,
          "material": 0,
          "mode": 4
        }
      ]
    },
    {
      "name": "Cube_4_5__0",
      "primitives": [
        {
          "attributes": {
            "NORMAL": 21,
            "POSITION": 20,
            "TANGENT": 22,
            "TEXCOORD_0": 23
          },
          "indices": 24,
          "material": 0,
          "mode": 4
        }
      ]
    },
    {
      "name": "Cube_3_1__0",
      "primitives": [
        {
          "attributes": {
            "NORMAL": 26,
            "POSITION": 25,
            "TANGENT": 27,
            "TEXCOORD_0": 28
          },
          "indices": 29,
          "material": 0,
          "mode": 4
        }
      ]
    }
  ],
  "nodes": [
    {
      "children": [
        1
      ],
      "matrix": [
        1.0,
        0.0,
        0.0,
        0.0,
        0.0,
        2.220446049250313e-16,
        -1.0,
        0.0,
        0.0,
        1.0,
        2.220446049250313e-16,
        0.0,
        0.0,
        0.0,
        0.0,
        1.0
      ],
      "name": "Sketchfab_model"
    },
    {
      "children": [
        2
      ],
      "matrix": [
        0.009999999776482582,
        0.0,
        0.0,
        0.0,
        0.0,
        0.0,
        0.009999999776482582,
        0.0,
        0.0,
        -0.009999999776482582,
        0.0,
        0.0,
        0.0,
        0.0,
        0.0,
        1.0
      ],
      "name": "845d5c3bda264ad9839184d6fe5d9d2b.fbx"
    },
    {
      "children": [
        3
      ],
      "name": "Object_2"
    },
    {
      "children": [
        4
      ],
      "name": "RootNode"
    },
    {
      "children": [
        5,
        7,
        9,
        11,
        13,
        15
      ],
      "name": "Table_3_3_obj"
    },
    {
      "children": [
        6
      ],
      "name": "Cube_1"
    },
    {
      "mesh": 0,
      "name": "Cube_1__0"
    },
    {
      "children": [
        8
      ],
      "name": "Cube_4_1"
    },
    {
      "mesh": 1,
      "name": "Cube_4_1__0"
    },
    {
      "children": [
        10
      ],
      "name": "Cube_4_2"
    },
    {
      "mesh": 2,
      "name": "Cube_4_2__0"
    },
    {
      "children": [
        12
      ],
      "name": "Cube_4_4"
    },
    {
      "mesh": 3,
      "name": "Cube_4_4__0"
    },
    {
      "children": [
        14
      ],
      "name": "Cube_4_5"
    },
    {
      "mesh": 4,
      "name": "Cube_4_5__0"
    },
    {
      "children": [
        16
      ],
      "name": "Cube_3_1"
    },
    {
      "mesh": 5,
      "name": "Cube_3_1__0"
    }
  ],
  "samplers": [
    {
      "magFilter": 9729,
      "minFilter": 9987,
      "wrapS": 10497,
      "wrapT": 10497
    }
  ],
  "scene": 0,
  "scenes": [
    {
      "name": "Sketchfab_Scene",
      "nodes": [
        0
      ]
    }
  ],
  "textures": [
    {
      "sampler": 0,
      "source": 0
    },
    {
      "sampler": 0,
      "source": 1
    },
    {
      "sampler": 0,
      "source": 2
    }
  ]
}
